<svg xmlns="http://www.w3.org/2000/svg" width="512" height="512" id="credit-card"><path fill="#3F5EAB" d="M449.972 402.198 49.137 352.01c-11.646-1.458-19.904-12.081-18.446-23.728l28.33-226.272c1.458-11.646 12.081-19.905 23.728-18.447l400.835 50.188c11.646 1.458 19.904 12.082 18.446 23.728l-28.331 226.272c-1.458 11.646-12.081 19.905-23.727 18.447z"></path><linearGradient id="a" x1="60.149" x2="406.206" y1="466.36" y2="120.304" gradientUnits="userSpaceOnUse"><stop offset="0" stop-color="#0FF"></stop><stop offset="1" stop-color="#FF7BAC"></stop></linearGradient><path fill="url(#a)" d="M435.159 428.604H31.195c-11.737 0-21.252-9.516-21.252-21.252v-228.04c0-11.737 9.515-21.251 21.252-21.251h403.964c11.737 0 21.252 9.515 21.252 21.251v228.04c0 11.736-9.515 21.252-21.252 21.252z"></path><path fill="#FFF" d="M172.403 360.501c12.869 0 12.891-20 0-20H52.569c-12.869 0-12.89 20 0 20h119.834zM207.07 360.501h24.592c12.869 0 12.891-20 0-20H207.07c-12.869 0-12.89 20 0 20z"></path><linearGradient id="b" x1="287.932" x2="362.64" y1="354.056" y2="354.056" gradientUnits="userSpaceOnUse"><stop offset="0" stop-color="#B3B3B3"></stop><stop offset=".016" stop-color="#B7B7B7"></stop><stop offset=".152" stop-color="#D1D1D1"></stop><stop offset=".302" stop-color="#E5E5E5"></stop><stop offset=".47" stop-color="#F4F4F4"></stop><stop offset=".672" stop-color="#FCFCFC"></stop><stop offset="1" stop-color="#FFF"></stop></linearGradient><circle cx="325.286" cy="354.056" r="37.354" fill="url(#b)"></circle><circle cx="385.619" cy="354.056" r="37.354" fill="#3F5EAB"></circle><path fill="#FFF" d="M9.943 249.209c14.844 0 444.285.621 445.717 0 .177-.077.546 0 .751 0 .184 0 .19-25 0-25-14.843 0-444.284-.621-445.716 0-.178.077-.547 0-.752 0-.183 0-.19 25 0 25z"></path></svg>