<?xml version="1.0" encoding="UTF-8"?>
<!DOCTYPE svg PUBLIC "-//W3C//DTD SVG 1.1//EN" "http://www.w3.org/Graphics/SVG/1.1/DTD/svg11.dtd">
<!-- Creator: CorelDRAW X5 -->
<svg xmlns="http://www.w3.org/2000/svg" xml:space="preserve" width="210mm" height="92.328mm" style="shape-rendering:geometricPrecision; text-rendering:geometricPrecision; image-rendering:optimizeQuality; fill-rule:evenodd; clip-rule:evenodd"
viewBox="0 0 21000 9233"
 xmlns:xlink="http://www.w3.org/1999/xlink">
 <defs>
  <style type="text/css">
   <![CDATA[
    .fil1 {fill:#FEFEFE}
    .fil0 {fill:#EE4E2C}
    .fil2 {fill:#EE4E2C;fill-rule:nonzero}
   ]]>
  </style>
 </defs>
 <g id="Layer_x0020_1">
  <metadata id="CorelCorpID_0Corel-Layer"/>
  <path class="fil0" d="M8413 3926l1490 0c99,0 180,81 180,180l0 1043c0,99 -81,180 -180,180l-1533 0c-99,0 -180,-81 -180,-180l0 -1288c0,-47 39,-79 85,-85l1374 -175c47,0 85,38 85,85l0 146 -1407 0c0,61 18,95 86,95zm836 1142l0 0c-125,24 -286,-18 -374,-112 -40,-42 24,-107 64,-64 59,63 164,93 250,91 109,-2 207,-102 144,-213 -86,-154 -298,-111 -406,-231 -88,-97 -46,-251 57,-319 108,-71 294,-68 382,33 38,44 -26,108 -64,64 -72,-82 -241,-71 -305,14 -92,121 46,186 142,215 132,40 278,113 302,264 19,122 -75,235 -192,258z"/>
  <path class="fil1" d="M9248 5069l0 0c-125,24 -286,-18 -374,-112 -40,-42 24,-107 64,-64 59,63 164,93 250,91 109,-2 207,-102 144,-213 -86,-154 -298,-111 -406,-231 -88,-97 -46,-251 57,-319 108,-71 294,-68 382,33 38,44 -26,108 -64,64 -72,-82 -241,-71 -305,14 -92,121 46,186 142,215 132,40 278,113 303,264 19,122 -75,235 -192,258z"/>
  <path class="fil2" d="M11814 3862c-53,0 -101,23 -134,58l0 -42c0,-38 -60,-38 -60,0l0 492c0,38 60,38 60,0l0 -219c33,36 81,58 134,58 99,0 179,-78 179,-174 0,-96 -80,-174 -179,-174zm0 285l0 0c-63,0 -115,-50 -115,-111 0,-55 42,-101 96,-110 0,0 1,0 1,0 6,-1 11,-1 17,-1 47,0 87,27 105,66 0,0 0,0 0,0 6,14 10,29 10,44 0,61 -51,111 -114,111zm-445 63c-99,0 -179,-78 -179,-174 0,-96 80,-174 179,-174 99,0 179,78 179,174 0,96 -80,174 -179,174zm0 -285l0 0c-63,0 -115,50 -115,111 0,61 51,111 115,111 63,0 115,-50 115,-111 0,-61 -51,-111 -115,-111zm1442 108c-1,-80 -44,-152 -131,-168 -75,-14 -163,25 -195,93 -33,71 -19,169 46,218 71,54 182,37 255,-3 34,-18 4,-69 -31,-51 -46,25 -107,37 -158,21 -39,-13 -61,-45 -67,-81l251 0c16,0 30,-13 30,-29zm-279 -29l0 0c0,-2 1,-4 2,-6 14,-48 64,-75 114,-77 57,-2 90,37 100,83l-215 0zm-123 30c-1,-80 -44,-152 -131,-168 -75,-14 -163,25 -195,93 -33,71 -19,169 46,218 71,54 182,37 255,-3 34,-18 4,-69 -31,-51 -46,25 -107,37 -158,21 -39,-13 -60,-45 -67,-81l251 0c16,0 30,-13 30,-29zm-279 -29l0 0c0,-2 1,-4 2,-6 14,-48 64,-75 114,-77 57,-2 90,37 100,83l-215 0zm-1011 -27l0 203c0,38 -60,38 -60,0l0 -199c-2,-39 -36,-58 -37,-58 -43,-19 -121,-10 -167,49l0 209c0,38 -60,38 -60,0l0 -522c0,-38 60,-38 60,0l0 235c74,-49 168,-44 212,-14 0,0 53,29 52,98zm-424 -295c-59,-65 -183,-67 -255,-21 -69,44 -97,142 -38,205 73,78 214,50 271,149 41,71 -24,135 -96,137 -57,1 -127,-18 -167,-59 -27,-27 -69,14 -43,41 58,61 166,87 250,72 78,-14 141,-87 128,-166 -16,-97 -114,-144 -202,-170 -64,-19 -156,-60 -95,-138 43,-54 156,-61 204,-9 26,28 68,-13 43,-41z"/>
  <path class="fil0" d="M12269 5632l-192 0 205 -388 -337 -636 208 0 233 440 233 -440 192 0 -542 1024zm-1910 -303l161 0 0 -294 217 0c225,0 407,-158 407,-352 0,-194 -182,-352 -407,-352l-377 0c0,333 0,665 0,998zm161 -454l0 -383 217 0c122,0 221,86 221,191 0,106 -99,191 -221,191l-217 0zm1225 -260l141 0 0 708 -141 0 0 -80c-63,54 -144,86 -233,86 -199,0 -360,-161 -360,-360 0,-199 161,-360 360,-360 89,0 171,32 233,86l0 -80zm-233 146c115,0 209,93 209,209 0,115 -93,209 -209,209 -115,0 -209,-93 -209,-209 0,-115 93,-209 209,-209z"/>
 </g>
</svg>
